<svg xmlns="http://www.w3.org/2000/svg" viewBox="0 0 800 800" width="100%" height="100%">
<style>
  @keyframes rotateCW { from { transform: rotate(0deg); } to { transform: rotate(360deg); } }
  @keyframes rotateCCW { from { transform: rotate(0deg); } to { transform: rotate(-360deg); } }
  .ring-outer { animation: rotateCW 60s linear infinite; transform-origin: 400px 400px; }
  .ring-inner { animation: rotateCCW 50s linear infinite; transform-origin: 400px 400px; }
  .cmd { font-family: "Courier New", Courier, monospace; font-size: 16px; fill: #58a6ff; font-weight: bold; cursor: pointer; transition: all 0.3s ease; text-anchor: middle; alignment-baseline: middle; }
  .cmd:hover { fill: #39ff14; filter: drop-shadow(0 0 8px #39ff14); font-size: 18px; }
  .cmd-inner { fill: #c9d1d9; }
  .cmd-inner:hover { fill: #00ffff; filter: drop-shadow(0 0 8px #00ffff); }
  .center-bg { fill: rgba(13, 17, 23, 0.85); stroke: #39ff14; stroke-width: 2; filter: drop-shadow(0 0 15px rgba(57, 255, 20, 0.4)); }
  .title { font-family: -apple-system, BlinkMacSystemFont, "Segoe UI", Helvetica, Arial, sans-serif; font-weight: bold; text-anchor: middle; alignment-baseline: middle; }
  .title-linux { font-size: 32px; fill: #39ff14; }
  .title-sub { font-size: 18px; fill: #c9d1d9; letter-spacing: 2px; }
  .title-cloud { font-size: 15px; fill: #58a6ff; letter-spacing: 3px; }
  .bg { fill: #0d1117; }
</style>
<rect width="800" height="800" class="bg" rx="20"/>

<!-- Subtle grid or accents for glassmorphism / devops vibe -->
<circle cx="400" cy="400" r="320" fill="none" stroke="#1f6feb" stroke-width="1" stroke-dasharray="4 8" opacity="0.3" />
<circle cx="400" cy="400" r="220" fill="none" stroke="#39ff14" stroke-width="1" stroke-dasharray="4 8" opacity="0.3" />

<g class="ring-outer">
  <text x="720.0" y="400.0" class="cmd" transform="rotate(0.0, 720.0, 400.0)">ls</text>
  <text x="713.9" y="462.4" class="cmd" transform="rotate(11.2, 713.9, 462.4)">cd</text>
  <text x="695.6" y="522.5" class="cmd" transform="rotate(22.5, 695.6, 522.5)">pwd</text>
  <text x="666.1" y="577.8" class="cmd" transform="rotate(33.8, 666.1, 577.8)">mkdir</text>
  <text x="626.3" y="626.3" class="cmd" transform="rotate(45.0, 626.3, 626.3)">rmdir</text>
  <text x="577.8" y="666.1" class="cmd" transform="rotate(56.2, 577.8, 666.1)">touch</text>
  <text x="522.5" y="695.6" class="cmd" transform="rotate(67.5, 522.5, 695.6)">cp</text>
  <text x="462.4" y="713.9" class="cmd" transform="rotate(78.8, 462.4, 713.9)">mv</text>
  <text x="400.0" y="720.0" class="cmd" transform="rotate(90.0, 400.0, 720.0)">rm</text>
  <text x="337.6" y="713.9" class="cmd" transform="rotate(281.2, 337.6, 713.9)">find</text>
  <text x="277.5" y="695.6" class="cmd" transform="rotate(292.5, 277.5, 695.6)">locate</text>
  <text x="222.2" y="666.1" class="cmd" transform="rotate(303.8, 222.2, 666.1)">git</text>
  <text x="173.7" y="626.3" class="cmd" transform="rotate(315.0, 173.7, 626.3)">docker</text>
  <text x="133.9" y="577.8" class="cmd" transform="rotate(326.2, 133.9, 577.8)">kubectl</text>
  <text x="104.4" y="522.5" class="cmd" transform="rotate(337.5, 104.4, 522.5)">terraform</text>
  <text x="86.1" y="462.4" class="cmd" transform="rotate(348.8, 86.1, 462.4)">ansible</text>
  <text x="80.0" y="400.0" class="cmd" transform="rotate(360.0, 80.0, 400.0)">ping</text>
  <text x="86.1" y="337.6" class="cmd" transform="rotate(371.2, 86.1, 337.6)">curl</text>
  <text x="104.4" y="277.5" class="cmd" transform="rotate(382.5, 104.4, 277.5)">wget</text>
  <text x="133.9" y="222.2" class="cmd" transform="rotate(393.8, 133.9, 222.2)">ssh</text>
  <text x="173.7" y="173.7" class="cmd" transform="rotate(405.0, 173.7, 173.7)">scp</text>
  <text x="222.2" y="133.9" class="cmd" transform="rotate(416.2, 222.2, 133.9)">ss</text>
  <text x="277.5" y="104.4" class="cmd" transform="rotate(427.5, 277.5, 104.4)">netstat</text>
  <text x="337.6" y="86.1" class="cmd" transform="rotate(438.8, 337.6, 86.1)">ip</text>
  <text x="400.0" y="80.0" class="cmd" transform="rotate(270.0, 400.0, 80.0)">top</text>
  <text x="462.4" y="86.1" class="cmd" transform="rotate(281.2, 462.4, 86.1)">htop</text>
  <text x="522.5" y="104.4" class="cmd" transform="rotate(292.5, 522.5, 104.4)">ps</text>
  <text x="577.8" y="133.9" class="cmd" transform="rotate(303.8, 577.8, 133.9)">free</text>
  <text x="626.3" y="173.7" class="cmd" transform="rotate(315.0, 626.3, 173.7)">uptime</text>
  <text x="666.1" y="222.2" class="cmd" transform="rotate(326.2, 666.1, 222.2)">df</text>
  <text x="695.6" y="277.5" class="cmd" transform="rotate(337.5, 695.6, 277.5)">du</text>
  <text x="713.9" y="337.6" class="cmd" transform="rotate(348.8, 713.9, 337.6)">lsblk</text>
</g>

<g class="ring-inner">
  <text x="620.0" y="400.0" class="cmd cmd-inner" transform="rotate(0.0, 620.0, 400.0)">cat</text>
  <text x="615.5" y="444.3" class="cmd cmd-inner" transform="rotate(11.6, 615.5, 444.3)">less</text>
  <text x="602.2" y="486.8" class="cmd cmd-inner" transform="rotate(23.2, 602.2, 486.8)">more</text>
  <text x="580.6" y="525.7" class="cmd cmd-inner" transform="rotate(34.8, 580.6, 525.7)">head</text>
  <text x="551.6" y="559.5" class="cmd cmd-inner" transform="rotate(46.5, 551.6, 559.5)">tail</text>
  <text x="516.4" y="586.7" class="cmd cmd-inner" transform="rotate(58.1, 516.4, 586.7)">grep</text>
  <text x="476.4" y="606.3" class="cmd cmd-inner" transform="rotate(69.7, 476.4, 606.3)">awk</text>
  <text x="433.3" y="617.5" class="cmd cmd-inner" transform="rotate(81.3, 433.3, 617.5)">sed</text>
  <text x="388.9" y="619.7" class="cmd cmd-inner" transform="rotate(272.9, 388.9, 619.7)">cut</text>
  <text x="344.9" y="613.0" class="cmd cmd-inner" transform="rotate(284.5, 344.9, 613.0)">sort</text>
  <text x="303.1" y="597.5" class="cmd cmd-inner" transform="rotate(296.1, 303.1, 597.5)">uniq</text>
  <text x="265.3" y="574.0" class="cmd cmd-inner" transform="rotate(307.7, 265.3, 574.0)">wc</text>
  <text x="233.1" y="543.3" class="cmd cmd-inner" transform="rotate(319.4, 233.1, 543.3)">chmod</text>
  <text x="207.6" y="506.8" class="cmd cmd-inner" transform="rotate(331.0, 207.6, 506.8)">chown</text>
  <text x="190.1" y="465.9" class="cmd cmd-inner" transform="rotate(342.6, 190.1, 465.9)">chgrp</text>
  <text x="181.1" y="422.3" class="cmd cmd-inner" transform="rotate(354.2, 181.1, 422.3)">umask</text>
  <text x="181.1" y="377.7" class="cmd cmd-inner" transform="rotate(365.8, 181.1, 377.7)">kill</text>
  <text x="190.1" y="334.1" class="cmd cmd-inner" transform="rotate(377.4, 190.1, 334.1)">pkill</text>
  <text x="207.6" y="293.2" class="cmd cmd-inner" transform="rotate(389.0, 207.6, 293.2)">jobs</text>
  <text x="233.1" y="256.7" class="cmd cmd-inner" transform="rotate(400.6, 233.1, 256.7)">bg</text>
  <text x="265.3" y="226.0" class="cmd cmd-inner" transform="rotate(412.3, 265.3, 226.0)">fg</text>
  <text x="303.1" y="202.5" class="cmd cmd-inner" transform="rotate(423.9, 303.1, 202.5)">nohup</text>
  <text x="344.9" y="187.0" class="cmd cmd-inner" transform="rotate(435.5, 344.9, 187.0)">systemctl</text>
  <text x="388.9" y="180.3" class="cmd cmd-inner" transform="rotate(447.1, 388.9, 180.3)">service</text>
  <text x="433.3" y="182.5" class="cmd cmd-inner" transform="rotate(278.7, 433.3, 182.5)">journalctl</text>
  <text x="476.4" y="193.7" class="cmd cmd-inner" transform="rotate(290.3, 476.4, 193.7)">dmesg</text>
  <text x="516.4" y="213.3" class="cmd cmd-inner" transform="rotate(301.9, 516.4, 213.3)">tar</text>
  <text x="551.6" y="240.5" class="cmd cmd-inner" transform="rotate(313.5, 551.6, 240.5)">gzip</text>
  <text x="580.6" y="274.3" class="cmd cmd-inner" transform="rotate(325.2, 580.6, 274.3)">gunzip</text>
  <text x="602.2" y="313.2" class="cmd cmd-inner" transform="rotate(336.8, 602.2, 313.2)">zip</text>
  <text x="615.5" y="355.7" class="cmd cmd-inner" transform="rotate(348.4, 615.5, 355.7)">unzip</text>
</g>

<!-- Center -->
<circle cx="400" cy="400" r="110" class="center-bg" />
<text x="400" y="360" class="title title-linux">🐧 LINUX</text>
<text x="400" y="400" class="title title-sub">DAILY PRACTICE</text>
<text x="400" y="440" class="title title-cloud">CLOUD • DEVOPS</text>
</svg>
